<svg xmlns="http://www.w3.org/2000/svg" version="1.1" xmlns:xlink="http://www.w3.org/1999/xlink" width="200" height="200"><svg xmlns="http://www.w3.org/2000/svg" version="1.1" xmlns:xlink="http://www.w3.org/1999/xlink" viewBox="0 0 200 200"><rect width="200" height="200" fill="url('#gradient')"></rect><defs><linearGradient id="SvgjsLinearGradient1041" gradientTransform="rotate(45 0.5 0.5)"><stop offset="0%" stop-color="#ccc872"></stop><stop offset="100%" stop-color="#bb753f"></stop></linearGradient></defs><g><g fill="#83493e" transform="matrix(12.487804878048781,0,0,12.487804878048781,17.209878520267765,187.5412280966596)" stroke="#5b7564" stroke-width="0.8"><path d="M8.80-14.22L12.23-14.22L12.23-4.91Q12.23-3.33 11.55-2.17Q10.88-1.02 9.62-0.41Q8.36 0.20 6.64 0.20L6.64 0.20Q4.04 0.20 2.55-1.15Q1.05-2.50 1.03-4.84L1.03-4.84L1.03-14.22L4.47-14.22L4.47-4.78Q4.53-2.44 6.64-2.44L6.64-2.44Q7.71-2.44 8.25-3.03Q8.80-3.61 8.80-4.93L8.80-4.93L8.80-14.22Z"></path></g></g></svg><style>@media (prefers-color-scheme: light) { :root { filter: none; } }
@media (prefers-color-scheme: dark) { :root { filter: none; } }
</style></svg>